<?xml version="1.0" encoding="utf-8"?>
<!-- Generator: Adobe Illustrator 22.0.1, SVG Export Plug-In . SVG Version: 6.00 Build 0)  -->
<svg version="1.1" id="Layer_1" xmlns="http://www.w3.org/2000/svg" xmlns:xlink="http://www.w3.org/1999/xlink" x="0px" y="0px"
	 viewBox="0 0 200 100" style="enable-background:new 0 0 200 100;" xml:space="preserve">
<path d="M20.9,72.5c5.7,0,10-1,13-3s4.5-5.3,4.5-9.7c0-2.2-0.7-4.4-2-6.7c-1.3-2.2-3.8-3.8-7.6-4.7c2.5-0.8,4.4-2,5.8-3.7
	s2-3.7,2-6.1c0-1.9-0.4-3.5-1.3-5s-2.1-2.8-3.7-3.9c-1.4-0.9-2.9-1.5-4.5-1.8c-1.6-0.3-4-0.4-7.4-0.4H7.2v45H20.9z M25.1,34.1
	L25.1,34.1c1.1,0.4,1.9,1.1,2.6,2.2c0.7,1,1.1,2.2,1.1,3.4c0,0.6-0.1,1.3-0.4,2.2c-0.3,0.8-0.7,1.7-1.4,2.4
	c-0.7,0.8-1.5,1.2-2.3,1.4s-1.9,0.3-3.2,0.3h-7V33.6h6.4c1.1,0,2,0.1,2.6,0.2C24.1,33.9,24.7,34,25.1,34.1z M26,52.5L26,52.5
	c1.2,0.4,2.2,1.2,3,2.4c0.8,1.2,1.2,2.6,1.3,4.2c0,2-0.7,3.7-2,5.1c-1.3,1.4-3.4,2.2-6.3,2.2h-7.4V52.1h7.2c1.1,0,1.9,0,2.4,0.1
	C24.8,52.3,25.4,52.3,26,52.5z M98.9,58.9L98.9,58.9c0,3.7-1.5,7.1-4.5,10c-3,2.9-7.3,4.4-13.1,4.4c-2.5,0-5-0.3-7.6-1
	s-4.9-1.7-7.2-3l2.9-5.7c2,1.2,4,2.1,5.9,2.7c1.9,0.6,4,1,6.2,1c2.8,0,4.9-0.6,6.5-1.9c1.6-1.3,2.4-3,2.4-5.2c0-1.7-0.5-3.1-1.6-4.1
	c-1.1-1.1-2.8-1.9-5.1-2.5L79,52c-2-0.6-3.8-1.3-5.3-2.2c-1.5-0.9-2.6-1.9-3.5-3.2c-0.6-0.9-1-1.9-1.4-3c-0.3-1.1-0.5-2.3-0.5-3.6
	c0-4,1.4-7.2,4.3-9.7c2.8-2.5,6.5-3.7,11-3.7c2.6,0,5.1,0.4,7.6,1.1s4.7,1.8,6.7,3.2l-3.4,5.3c-2-1.2-3.9-2.1-5.5-2.6
	c-1.6-0.5-3.3-0.8-5.1-0.8c-2.2,0-3.9,0.6-5.3,1.7s-2,2.6-2,4.4c0,1.4,0.4,2.5,1.3,3.3c0.9,0.8,2.4,1.6,4.7,2.2l5.4,1.6
	c3.3,0.9,5.9,2.5,8,4.6C97.9,52.7,98.9,55.5,98.9,58.9z M161.9,72.5h-7.6V51.8h-16v20.7H131v-45h7.4v18.1h16V27.5h7.6V72.5z
	 M45.8,78.1h-5.2l20.5-56.2h5.2L45.8,78.1z M106.1,78.1H101l20.5-56.2h5.1L106.1,78.1z M171.5,78.1h-5.2l20.5-56.2h5.2L171.5,78.1z"
	/>
</svg>
